<svg width="196" height="208" viewBox="0 0 196 208" fill="none" xmlns="http://www.w3.org/2000/svg">
<g id="Frame 1000002849">
<path id="Vector" d="M101.054 142.65C120.586 142.65 136.421 126.816 136.421 107.283C136.421 87.7504 120.586 71.916 101.054 71.916C81.5209 71.916 65.6865 87.7504 65.6865 107.283C65.6865 126.816 81.5209 142.65 101.054 142.65Z" fill="#02997E"/>
<path id="Vector_2" d="M118.467 92.3547C118.913 92.7195 112.307 101.609 103.715 112.2L98.5003 118.522L97.7843 119.387L97.0278 118.603C90.2732 111.673 85.7206 106.539 86.0448 106.215C86.3691 105.891 91.516 110.471 98.4327 117.185L96.9738 117.333L102.08 110.943C110.672 100.285 118.008 91.99 118.467 92.3547Z" fill="white"/>
<path id="Vector_3" d="M151.294 93.0172C150.241 89.3022 145.418 89.6669 145.418 89.6669L145.539 92.2472C148.336 91.7608 150.065 95.0301 150.065 95.0301L151.294 93.0172Z" fill="#02997E"/>
<path id="Vector_4" d="M48.8405 100.825C47.8003 97.1102 42.964 97.4615 42.964 97.4615L43.0991 100.055C45.8955 99.5689 47.6247 102.838 47.6247 102.838L48.8405 100.825Z" fill="#E0E0E0"/>
<path id="Vector_5" d="M105.268 49.4233C110.875 51.1255 114.36 44.6681 114.36 44.6681L110.956 42.7228C109.281 46.681 103.688 46.2217 103.688 46.2217L105.268 49.4233Z" fill="#E0E0E0"/>
<path id="Vector_6" d="M74.1837 56.3799C71.5765 56.6636 71.2657 59.9328 71.2657 59.9328L73.0084 60.1354C73.0084 58.2171 75.3996 57.4336 75.3996 57.4336L74.1837 56.3799Z" fill="#02997E"/>
<path id="Vector_7" d="M181.636 80.3185C182.014 77.7247 178.934 76.6035 178.934 76.6035L178.299 78.2381C180.163 78.7109 180.339 81.2236 180.339 81.2236L181.636 80.3185Z" fill="#E0E0E0"/>
<path id="Vector_8" d="M89.3951 22.2422C89.7734 19.6484 86.6933 18.5272 86.6933 18.5272L86.0583 20.1753C87.9226 20.6481 88.0982 23.1473 88.0982 23.1473L89.3951 22.2422Z" fill="#02997E"/>
<path id="Vector_9" d="M24.9833 64.0809C24.524 68.1336 29.9006 69.1333 29.9006 69.1333L30.8733 66.4315C27.6446 66.1343 27.1853 62.3787 27.1853 62.3787L24.9833 64.0809Z" fill="#02997E"/>
<path id="Vector_10" d="M144.891 49.3422C147.512 49.4908 148.349 46.3161 148.349 46.3161L146.661 45.8298C146.35 47.7211 143.864 48.1128 143.864 48.1128L144.891 49.3422Z" fill="#02997E"/>
<path id="Vector_11" d="M159.197 60.0143C158.495 60.2113 157.762 60.2799 157.036 60.2169C156.309 60.2814 155.576 60.2128 154.874 60.0143C156.301 59.7261 157.771 59.7261 159.197 60.0143Z" fill="#E0E0E0"/>
<path id="Vector_12" d="M161.494 54.138C161.764 55.5845 161.764 57.0685 161.494 58.515C161.205 57.0702 161.205 55.5828 161.494 54.138Z" fill="#E0E0E0"/>
<path id="Vector_13" d="M163.925 59.866C164.628 59.669 165.36 59.6004 166.087 59.6634C166.814 59.5989 167.546 59.6676 168.248 59.866C166.822 60.1542 165.352 60.1542 163.925 59.866Z" fill="#E0E0E0"/>
<path id="Vector_14" d="M161.642 65.7554C161.354 64.3061 161.354 62.8142 161.642 61.3649C161.912 62.8159 161.912 64.3043 161.642 65.7554Z" fill="#E0E0E0"/>
<path id="Vector_15" d="M165.128 63.2972C165.047 63.3647 164.628 63.0135 164.196 62.5137C163.763 62.0138 163.507 61.5275 163.588 61.4599C163.669 61.3924 164.101 61.7301 164.52 62.2435C164.939 62.7568 165.222 63.1486 165.128 63.2972Z" fill="#E0E0E0"/>
<path id="Vector_16" d="M164.925 56.5424C165.006 56.6369 164.722 57.0557 164.277 57.5015C163.831 57.9473 163.412 58.2445 163.331 58.1635C163.25 58.0824 163.534 57.6501 163.979 57.2043C164.425 56.7585 164.844 56.5424 164.925 56.5424Z" fill="#E0E0E0"/>
<path id="Vector_17" d="M159.981 58.2576C159.9 58.3522 159.494 58.136 159.075 57.7848C158.657 57.4335 158.387 57.0823 158.454 57.0012C158.522 56.9202 158.927 57.1228 159.346 57.4605C159.764 57.7983 160.048 58.1765 159.981 58.2576Z" fill="#E0E0E0"/>
<path id="Vector_18" d="M159.778 61.203C159.872 61.2706 159.616 61.6894 159.211 62.1352C158.805 62.581 158.413 62.8647 158.332 62.7836C158.251 62.7026 158.495 62.2838 158.9 61.8515C159.305 61.4192 159.697 61.122 159.778 61.203Z" fill="#E0E0E0"/>
<path id="Vector_19" d="M41.5052 47.9644C40.0786 48.2526 38.6088 48.2526 37.1823 47.9644C37.8847 47.7674 38.6169 47.6988 39.3437 47.7618C40.0705 47.6973 40.803 47.7659 41.5052 47.9644Z" fill="#02997E"/>
<path id="Vector_20" d="M43.8015 42.0876C44.0898 43.5369 44.0898 45.0288 43.8015 46.4781C43.5133 45.0288 43.5133 43.5369 43.8015 42.0876Z" fill="#02997E"/>
<path id="Vector_21" d="M46.2466 47.8289C47.6732 47.5407 49.1429 47.5407 50.5695 47.8289C49.1429 48.1171 47.6732 48.1171 46.2466 47.8289Z" fill="#02997E"/>
<path id="Vector_22" d="M43.9503 53.7052C43.6621 52.2604 43.6621 50.7729 43.9503 49.3282C44.2386 50.7729 44.2386 52.2604 43.9503 53.7052Z" fill="#02997E"/>
<path id="Vector_23" d="M47.4492 51.1388C47.3546 51.2198 46.9358 50.8686 46.517 50.3552C46.0982 49.8419 45.8145 49.3826 45.9091 49.3015C46.0037 49.2205 46.4089 49.5852 46.8412 50.0851C47.2735 50.5849 47.5302 51.1388 47.4492 51.1388Z" fill="#02997E"/>
<path id="Vector_24" d="M47.2463 44.5192C47.3274 44.6003 47.0302 45.0326 46.5979 45.4784C46.1656 45.9242 45.7333 46.2079 45.6522 46.1268C45.5712 46.0457 45.8549 45.627 46.3007 45.1812C46.7465 44.7354 47.1653 44.3841 47.2463 44.5192Z" fill="#02997E"/>
<path id="Vector_25" d="M42.2885 46.2209C42.2209 46.302 41.8157 46.0994 41.3969 45.7481C40.9781 45.3969 40.6944 45.0456 40.7754 44.9511C40.8565 44.8565 41.2483 45.0727 41.6671 45.4239C42.0858 45.7751 42.3695 46.1264 42.2885 46.2209Z" fill="#02997E"/>
<path id="Vector_26" d="M42.0995 49.1533C42.1806 49.2344 41.9239 49.6532 41.5321 50.099C41.1404 50.5448 40.7351 50.8285 40.6405 50.7474C40.546 50.6664 40.8162 50.2476 41.2079 49.8153C41.5997 49.383 42.005 49.0723 42.0995 49.1533Z" fill="#02997E"/>
</g>
</svg>
