<svg width="149" height="28" viewBox="0 0 149 28" fill="none" xmlns="http://www.w3.org/2000/svg">
<g id="Social">
<g id="1">
<path id="BG" d="M27.6256 14C27.6256 21.4537 21.5554 27.5 14.0628 27.5C6.57015 27.5 0.5 21.4537 0.5 14C0.5 6.54626 6.57015 0.5 14.0628 0.5C21.5554 0.5 27.6256 6.54626 27.6256 14Z" stroke="#D4D4D8"/>
<g id="logo-twitter 2">
<g id="Group">
<path id="Vector" d="M20.2978 10.9831C19.8769 11.1693 19.4326 11.2857 18.9649 11.3556C19.4326 11.0762 19.8067 10.6339 19.9704 10.0985C19.5261 10.3546 19.0351 10.5408 18.4972 10.6572C18.0763 10.2149 17.4684 9.93555 16.8136 9.93555C15.5509 9.93555 14.5221 10.9598 14.5221 12.2169C14.5221 12.4031 14.5454 12.5661 14.5922 12.729C12.6982 12.6359 10.9912 11.728 9.84538 10.3313C9.65832 10.6805 9.5414 11.0529 9.5414 11.472C9.5414 12.2634 9.93892 12.9618 10.5703 13.3808C10.1961 13.3576 9.84538 13.2644 9.51802 13.1015V13.1248C9.51802 14.2422 10.3131 15.1733 11.3653 15.3828C11.1782 15.4294 10.9678 15.4527 10.7573 15.4527C10.617 15.4527 10.4534 15.4294 10.3131 15.4061C10.617 16.314 11.4588 16.9891 12.4643 16.9891C11.6693 17.5943 10.6872 17.9668 9.61155 17.9668C9.42448 17.9668 9.23741 17.9668 9.07373 17.9435C10.1026 18.5953 11.2952 18.9678 12.6046 18.9678C16.837 18.9678 19.152 15.476 19.152 12.4497C19.152 12.3566 19.152 12.2402 19.152 12.1471C19.5963 11.8444 19.9938 11.4487 20.2978 10.9831Z" fill="#F7F5EF"/>
</g>
</g>
</g>
<g id="2">
<ellipse id="BG_2" cx="54.2422" cy="14" rx="14.0628" ry="14" fill="#F7F5EF"/>
<g id="logo-fb-simple 2">
<g id="Group_2">
<path id="Vector_2" d="M52.9451 20.3038V14.7503H51.0679V12.5859H52.9451V10.9898C52.9451 9.13752 54.0815 8.12891 55.7413 8.12891C56.5364 8.12891 57.2197 8.18784 57.4188 8.21417V10.1499L56.2677 10.1505C55.365 10.1505 55.1902 10.5775 55.1902 11.2041V12.5859H57.343L57.0627 14.7503H55.1902V20.3038H52.9451Z" fill="#121212"/>
</g>
</g>
</g>
<g id="3">
<path id="BG_3" d="M107.984 14C107.984 21.4537 101.914 27.5 94.4214 27.5C86.9288 27.5 80.8586 21.4537 80.8586 14C80.8586 6.54626 86.9288 0.5 94.4214 0.5C101.914 0.5 107.984 6.54626 107.984 14Z" stroke="#D4D4D8"/>
<g id="logo-instagram 1">
<g id="Group_3">
<path id="Vector_3" d="M94.4222 8.44721C96.2391 8.44721 96.4542 8.45398 97.1719 8.48656C97.6035 8.49182 98.0309 8.5707 98.4356 8.71979C98.7292 8.83248 98.9957 9.00511 99.2182 9.22656C99.4406 9.44802 99.614 9.71339 99.7272 10.0056C99.877 10.4085 99.9562 10.8341 99.9615 11.2637C99.9939 11.9782 100.001 12.1924 100.001 14.0011C100.001 15.8098 99.9942 16.024 99.9615 16.7385C99.9562 17.1681 99.877 17.5936 99.7272 17.9966C99.614 18.2888 99.4406 18.5541 99.2182 18.7756C98.9957 18.997 98.7292 19.1697 98.4356 19.2824C98.0309 19.4315 97.6035 19.5103 97.1719 19.5156C96.4545 19.5479 96.2394 19.5549 94.4222 19.5549C92.6051 19.5549 92.3899 19.5482 91.6726 19.5156C91.241 19.5103 90.8136 19.4315 90.4088 19.2824C90.1153 19.1697 89.8488 18.997 89.6263 18.7756C89.4039 18.5541 89.2305 18.2888 89.1173 17.9966C88.9675 17.5936 88.8883 17.1681 88.883 16.7385C88.8506 16.024 88.8435 15.8098 88.8435 14.0011C88.8435 12.1924 88.8503 11.9782 88.883 11.2637C88.8883 10.8341 88.9675 10.4085 89.1173 10.0056C89.2305 9.71339 89.4039 9.44802 89.6263 9.22656C89.8488 9.00511 90.1153 8.83248 90.4088 8.71979C90.8136 8.5707 91.241 8.49182 91.6726 8.48656C92.3903 8.4543 92.6054 8.44721 94.4222 8.44721ZM94.4222 7.22656C92.5753 7.22656 92.3426 7.2343 91.6168 7.26721C91.0521 7.27839 90.4933 7.38485 89.9643 7.58205C89.5105 7.75226 89.0994 8.019 88.7599 8.36366C88.4134 8.70184 88.1452 9.11127 87.9741 9.56334C87.776 10.09 87.6691 10.6463 87.6579 11.2085C87.6255 11.9304 87.6177 12.162 87.6177 14.0008C87.6177 15.8395 87.6255 16.0711 87.6585 16.7937C87.6697 17.3559 87.7767 17.9122 87.9748 18.4388C88.1456 18.8908 88.4136 19.3002 88.7599 19.6385C89.0996 19.9832 89.5109 20.25 89.9649 20.4201C90.4939 20.6173 91.0527 20.7238 91.6175 20.7349C92.3433 20.7672 92.575 20.7756 94.4229 20.7756C96.2708 20.7756 96.5025 20.7679 97.2283 20.7349C97.7931 20.7238 98.3519 20.6173 98.8809 20.4201C99.3327 20.2457 99.7431 19.9794 100.086 19.6381C100.428 19.2968 100.696 18.8882 100.87 18.4382C101.068 17.9115 101.175 17.3553 101.187 16.793C101.219 16.0711 101.227 15.8395 101.227 14.0008C101.227 12.162 101.219 11.9304 101.186 11.2079C101.175 10.6456 101.068 10.0893 100.87 9.56269C100.699 9.11068 100.431 8.70126 100.085 8.36301C99.7449 8.01828 99.3336 7.75153 98.8796 7.5814C98.3506 7.3842 97.7918 7.27775 97.227 7.26656C96.5019 7.2343 96.2692 7.22656 94.4222 7.22656Z" fill="#F7F5EF"/>
<path id="Vector_4" d="M94.4238 10.5234C93.7326 10.5234 93.0571 10.7275 92.4824 11.1097C91.9078 11.492 91.4599 12.0353 91.1954 12.6709C90.931 13.3066 90.8618 14.006 90.9966 14.6808C91.1314 15.3556 91.4642 15.9755 91.9529 16.462C92.4416 16.9485 93.0642 17.2798 93.742 17.414C94.4199 17.5482 95.1225 17.4794 95.761 17.2161C96.3995 16.9528 96.9452 16.5069 97.3292 15.9348C97.7131 15.3627 97.9181 14.6902 97.9181 14.0021C97.9181 13.0795 97.5499 12.1947 96.8946 11.5423C96.2393 10.8899 95.3505 10.5234 94.4238 10.5234ZM94.4238 16.2602C93.9751 16.2602 93.5366 16.1278 93.1636 15.8797C92.7906 15.6315 92.4999 15.2789 92.3282 14.8663C92.1565 14.4537 92.1116 13.9996 92.1991 13.5616C92.2867 13.1236 92.5027 12.7213 92.8199 12.4055C93.1371 12.0897 93.5413 11.8746 93.9813 11.7875C94.4212 11.7003 94.8773 11.7451 95.2918 11.916C95.7062 12.0869 96.0605 12.3763 96.3097 12.7476C96.5589 13.119 96.6919 13.5555 96.6919 14.0021C96.6919 14.601 96.453 15.1754 96.0276 15.5988C95.6022 16.0223 95.0253 16.2602 94.4238 16.2602Z" fill="#F7F5EF"/>
<path id="Vector_5" d="M98.0553 11.1981C98.5063 11.1981 98.8719 10.8341 98.8719 10.3852C98.8719 9.93621 98.5063 9.57227 98.0553 9.57227C97.6044 9.57227 97.2388 9.93621 97.2388 10.3852C97.2388 10.8341 97.6044 11.1981 98.0553 11.1981Z" fill="#F7F5EF"/>
</g>
</g>
</g>
<g id="4">
<path id="BG_4" d="M148.164 14C148.164 21.4537 142.093 27.5 134.601 27.5C127.108 27.5 121.038 21.4537 121.038 14C121.038 6.54626 127.108 0.5 134.601 0.5C142.093 0.5 148.164 6.54626 148.164 14Z" stroke="#D4D4D8"/>
<g id="logo-github 1">
<g id="Group_4">
<path id="Vector_6" fill-rule="evenodd" clip-rule="evenodd" d="M135.21 7.22656C131.603 7.22656 128.701 10.1155 128.701 13.7065C128.701 16.5684 130.573 18.9984 133.149 19.8624C133.475 19.9164 133.583 19.7274 133.583 19.5384C133.583 19.3764 133.583 18.9714 133.583 18.4314C131.766 18.8364 131.386 17.5674 131.386 17.5674C131.088 16.8114 130.654 16.6224 130.654 16.6224C130.057 16.2174 130.708 16.2174 130.708 16.2174C131.359 16.2714 131.712 16.8924 131.712 16.8924C132.281 17.8914 133.231 17.5944 133.61 17.4324C133.664 17.0004 133.827 16.7304 134.017 16.5684C132.58 16.4064 131.061 15.8394 131.061 13.3555C131.061 12.6535 131.305 12.0595 131.739 11.6275C131.685 11.4655 131.441 10.8175 131.793 9.89952C131.793 9.89952 132.336 9.73752 133.583 10.5745C134.098 10.4395 134.668 10.3585 135.21 10.3585C135.753 10.3585 136.322 10.4395 136.838 10.5745C138.085 9.73752 138.628 9.89952 138.628 9.89952C138.98 10.7905 138.763 11.4385 138.682 11.6275C139.089 12.0865 139.36 12.6535 139.36 13.3555C139.36 15.8394 137.841 16.3794 136.377 16.5414C136.621 16.7304 136.81 17.1354 136.81 17.7294C136.81 18.5934 136.81 19.2954 136.81 19.5114C136.81 19.6734 136.919 19.8894 137.272 19.8354C139.848 18.9984 141.719 16.5684 141.719 13.7065C141.719 10.1155 138.817 7.22656 135.21 7.22656Z" fill="#F7F5EF"/>
</g>
</g>
</g>
</g>
</svg>
